<svg width="239" height="37" viewBox="0 0 239 37" fill="none" xmlns="http://www.w3.org/2000/svg">
<path d="M0 4.05212H5.35474L14.0452 24.0227V32.1426H12.6407L5.35474 14.1471V36.4H0V4.05212ZM24.5353 4.05212H29.89V36.4H24.5353V14.1471L17.2932 32.1426H15.8448V24.1105L24.5353 4.05212Z" fill="white"/>
<path d="M0.940326 0.0524814L6.38284 0.0422007L14.8118 24.2543L23.2371 0.0103636L28.7235 0L17.4606 32.3254L12.2375 32.3352L0.940326 0.0524814ZM11.8886 10.3024L10.6091 6.7496L18.9923 6.73377L17.7701 10.2913L11.8886 10.3024Z" fill="white"/>
<path d="M55.66 28.2L54.79 23.91H49.84L49 28.2H45.16C46.04 24.54 46.93 21.21 47.83 18.21C48.73 15.19 49.6 12.33 50.44 9.63002H54.46C55.34 12.35 56.21 15.24 57.07 18.3C57.95 21.34 58.8 24.64 59.62 28.2H55.66ZM52.36 13.23C52.16 13.93 51.97 14.6 51.79 15.24C51.63 15.86 51.47 16.48 51.31 17.1C51.17 17.7 51.03 18.31 50.89 18.93C50.77 19.55 50.65 20.19 50.53 20.85H54.16C54.04 20.19 53.92 19.55 53.8 18.93C53.68 18.31 53.54 17.7 53.38 17.1C53.24 16.48 53.08 15.86 52.9 15.24C52.74 14.6 52.56 13.93 52.36 13.23ZM73.69 28.2H62.02V9.63002H65.74V25.14H73.69V28.2ZM76.51 28.2V25.14H80.56V12.69H76.51V9.63002H88.3V12.69H84.28V25.14H88.3V28.2H76.51ZM100.54 28.2C99.7 26.14 98.78 24.09 97.78 22.05C96.8 19.99 95.74 17.93 94.6 15.87V28.2H91.27V9.63002H94.24C94.8 10.51 95.36 11.47 95.92 12.51C96.48 13.53 97.02 14.55 97.54 15.57C98.08 16.59 98.57 17.58 99.01 18.54C99.47 19.5 99.86 20.34 100.18 21.06V9.63002H103.51V28.2H100.54ZM106.78 28.2V9.63002H118.03V12.69H110.47V16.86H117.04V19.92H110.47V25.14H118.69V28.2H106.78ZM139.72 9.63002C139.86 10.05 140.03 10.59 140.23 11.25C140.45 11.91 140.68 12.62 140.92 13.38C141.16 14.14 141.4 14.91 141.64 15.69C141.88 16.47 142.11 17.19 142.33 17.85C142.57 17.11 142.82 16.35 143.08 15.57C143.34 14.77 143.59 14.01 143.83 13.29C144.07 12.55 144.29 11.86 144.49 11.22C144.69 10.58 144.87 10.05 145.03 9.63002H148.09C148.23 11.25 148.36 12.83 148.48 14.37C148.62 15.91 148.73 17.44 148.81 18.96C148.91 20.46 148.99 21.98 149.05 23.52C149.11 25.04 149.16 26.6 149.2 28.2H145.81L145.99 13.77L143.71 21.63H141.01L138.82 13.77L138.97 28.2H135.58C135.64 26.68 135.7 25.1 135.76 23.46C135.84 21.82 135.92 20.19 136 18.57C136.08 16.95 136.17 15.38 136.27 13.86C136.39 12.34 136.52 10.93 136.66 9.63002H139.72ZM160.66 28.2L159.79 23.91H154.84L154 28.2H150.16C151.04 24.54 151.93 21.21 152.83 18.21C153.73 15.19 154.6 12.33 155.44 9.63002H159.46C160.34 12.35 161.21 15.24 162.07 18.3C162.95 21.34 163.8 24.64 164.62 28.2H160.66ZM157.36 13.23C157.16 13.93 156.97 14.6 156.79 15.24C156.63 15.86 156.47 16.48 156.31 17.1C156.17 17.7 156.03 18.31 155.89 18.93C155.77 19.55 155.65 20.19 155.53 20.85H159.16C159.04 20.19 158.92 19.55 158.8 18.93C158.68 18.31 158.54 17.7 158.38 17.1C158.24 16.48 158.08 15.86 157.9 15.24C157.74 14.6 157.56 13.93 157.36 13.23ZM171.31 9.42001C172.37 9.42001 173.33 9.54001 174.19 9.78002C175.05 10.02 175.79 10.39 176.41 10.89C177.03 11.39 177.5 12.03 177.82 12.81C178.16 13.57 178.33 14.47 178.33 15.51C178.33 16.59 178.11 17.57 177.67 18.45C177.23 19.33 176.5 20 175.48 20.46C175.82 20.98 176.18 21.56 176.56 22.2C176.94 22.82 177.31 23.48 177.67 24.18C178.03 24.86 178.37 25.55 178.69 26.25C179.03 26.93 179.32 27.58 179.56 28.2H175.69C175.23 27 174.69 25.85 174.07 24.75C173.47 23.63 172.82 22.5 172.12 21.36H170.2V28.2H166.51V9.90002C166.87 9.82002 167.26 9.75002 167.68 9.69001C168.12 9.61001 168.56 9.56001 169 9.54001C169.44 9.50002 169.86 9.47002 170.26 9.45002C170.66 9.43002 171.01 9.42001 171.31 9.42001ZM174.58 15.48C174.58 14.5 174.28 13.78 173.68 13.32C173.08 12.86 172.29 12.63 171.31 12.63C171.17 12.63 171 12.64 170.8 12.66C170.6 12.66 170.4 12.68 170.2 12.72V18.3H171.01C172.27 18.3 173.18 18.06 173.74 17.58C174.3 17.08 174.58 16.38 174.58 15.48ZM181.78 28.2V9.63002H193.03V12.69H185.47V16.86H192.04V19.92H185.47V25.14H193.69V28.2H181.78ZM209.14 9.63002V12.69H204.25V28.2H200.53V12.69H195.64V9.63002H209.14ZM224.14 9.63002V12.69H219.25V28.2H215.53V12.69H210.64V9.63002H224.14ZM226.51 28.2V25.14H230.56V12.69H226.51V9.63002H238.3V12.69H234.28V25.14H238.3V28.2H226.51Z" fill="white"/>
</svg>
